<svg width="279" height="279" viewBox="0 0 279 279" fill="none" xmlns="http://www.w3.org/2000/svg">
<rect x="28" y="65" width="104" height="44" rx="8" fill="#818181" fill-opacity="0.2"/>
<rect x="36" y="73" width="40" height="12" rx="2" fill="#818181"/>
<rect x="84" y="73" width="40" height="12" rx="2" fill="#818181"/>
<rect x="56" y="93" width="20" height="8" rx="2" fill="#818181"/>
<rect x="84" y="93" width="20" height="8" rx="2" fill="#818181"/>
<rect x="28" y="117" width="104" height="44" rx="8" fill="#818181" fill-opacity="0.2"/>
<rect x="36" y="125" width="40" height="12" rx="2" fill="#818181"/>
<rect x="84" y="125" width="40" height="12" rx="2" fill="#818181"/>
<rect x="56" y="145" width="20" height="8" rx="2" fill="#818181"/>
<rect x="84" y="145" width="20" height="8" rx="2" fill="#818181"/>
<rect x="28" y="169" width="104" height="44" rx="8" fill="#818181" fill-opacity="0.2"/>
<rect x="36" y="177" width="40" height="12" rx="2" fill="#818181"/>
<rect x="84" y="177" width="40" height="12" rx="2" fill="#818181"/>
<rect x="56" y="197" width="20" height="8" rx="2" fill="#818181"/>
<rect x="84" y="197" width="20" height="8" rx="2" fill="#818181"/>
<rect x="148" y="65" width="104" height="44" rx="8" fill="#818181" fill-opacity="0.2"/>
<rect x="156" y="73" width="40" height="12" rx="2" fill="#818181"/>
<rect x="204" y="73" width="40" height="12" rx="2" fill="#818181"/>
<rect x="176" y="93" width="20" height="8" rx="2" fill="#818181"/>
<rect x="204" y="93" width="20" height="8" rx="2" fill="#818181"/>
<rect x="148" y="117" width="104" height="44" rx="8" fill="#818181" fill-opacity="0.2"/>
<rect x="156" y="125" width="40" height="12" rx="2" fill="#818181"/>
<rect x="204" y="125" width="40" height="12" rx="2" fill="#818181"/>
<rect x="176" y="145" width="20" height="8" rx="2" fill="#818181"/>
<rect x="204" y="145" width="20" height="8" rx="2" fill="#818181"/>
<rect x="148" y="169" width="104" height="44" rx="8" fill="#818181" fill-opacity="0.2"/>
<rect x="156" y="177" width="40" height="12" rx="2" fill="#818181"/>
<rect x="204" y="177" width="40" height="12" rx="2" fill="#818181"/>
<rect x="176" y="197" width="20" height="8" rx="2" fill="#818181"/>
<rect x="204" y="197" width="20" height="8" rx="2" fill="#818181"/>
</svg>
