<svg width="279" height="279" viewBox="0 0 279 279" fill="none" xmlns="http://www.w3.org/2000/svg">
<rect x="32" y="140" width="8" height="8" rx="2" fill="#818181"/>
<rect x="32" y="161" width="8" height="8" rx="2" fill="#818181"/>
<rect x="32" y="182" width="8" height="8" rx="2" fill="#818181"/>
<rect x="32" y="203" width="8" height="8" rx="2" fill="#818181"/>
<rect x="32" y="224" width="8" height="8" rx="2" fill="#818181"/>
<rect x="32" y="245" width="8" height="8" rx="2" fill="#818181"/>
<rect x="48" y="140" width="200" height="8" rx="2" fill="#818181"/>
<rect x="48" y="161" width="200" height="8" rx="2" fill="#818181"/>
<rect x="48" y="182" width="200" height="8" rx="2" fill="#818181"/>
<rect x="48" y="203" width="200" height="8" rx="2" fill="#818181"/>
<rect x="48" y="224" width="200" height="8" rx="2" fill="#818181"/>
<rect x="48" y="245" width="200" height="8" rx="2" fill="#818181"/>
<path d="M62 109.75L63.75 108L69 113.25L67.25 115L62 109.75Z" fill="#818181"/>
<path d="M67.25 108L69 109.75L63.75 115L62 113.25L67.25 108Z" fill="#818181"/>
<path d="M85 107.75L86.75 106L92 111.25L90.25 113L85 107.75Z" fill="#818181"/>
<path d="M90.25 106L92 107.75L86.75 113L85 111.25L90.25 106Z" fill="#818181"/>
<path d="M135 107.75L136.75 106L142 111.25L140.25 113L135 107.75Z" fill="#818181"/>
<path d="M140.25 106L142 107.75L136.75 113L135 111.25L140.25 106Z" fill="#818181"/>
<path d="M121 37.75L122.75 36L128 41.25L126.25 43L121 37.75Z" fill="#818181"/>
<path d="M126.25 36L128 37.75L122.75 43L121 41.25L126.25 36Z" fill="#818181"/>
<path d="M233 72.75L234.75 71L240 76.25L238.25 78L233 72.75Z" fill="#818181"/>
<path d="M238.25 71L240 72.75L234.75 78L233 76.25L238.25 71Z" fill="#818181"/>
<path d="M72 91.75L73.75 90L79 95.25L77.25 97L72 91.75Z" fill="#818181"/>
<path d="M77.25 90L79 91.75L73.75 97L72 95.25L77.25 90Z" fill="#818181"/>
<path d="M125 83.75L126.75 82L132 87.25L130.25 89L125 83.75Z" fill="#818181"/>
<path d="M130.25 82L132 83.75L126.75 89L125 87.25L130.25 82Z" fill="#818181"/>
<path d="M179 98.75L180.75 97L186 102.25L184.25 104L179 98.75Z" fill="#818181"/>
<path d="M184.25 97L186 98.75L180.75 104L179 102.25L184.25 97Z" fill="#818181"/>
<path d="M136 61.75L137.75 60L143 65.25L141.25 67L136 61.75Z" fill="#818181"/>
<path d="M141.25 60L143 61.75L137.75 67L136 65.25L141.25 60Z" fill="#818181"/>
<path d="M202 88.75L203.75 87L209 92.25L207.25 94L202 88.75Z" fill="#818181"/>
<path d="M207.25 87L209 88.75L203.75 94L202 92.25L207.25 87Z" fill="#818181"/>
<path d="M172 52.75L173.75 51L179 56.25L177.25 58L172 52.75Z" fill="#818181"/>
<path d="M177.25 51L179 52.75L173.75 58L172 56.25L177.25 51Z" fill="#818181"/>
<path d="M111 100.75L112.75 99L118 104.25L116.25 106L111 100.75Z" fill="#818181"/>
<path d="M116.25 99L118 100.75L112.75 106L111 104.25L116.25 99Z" fill="#818181"/>
<path d="M157 79.75L158.75 78L164 83.25L162.25 85L157 79.75Z" fill="#818181"/>
<path d="M162.25 78L164 79.75L158.75 85L157 83.25L162.25 78Z" fill="#818181"/>
<path d="M98 76.75L99.75 75L105 80.25L103.25 82L98 76.75Z" fill="#818181"/>
<path d="M103.25 75L105 76.75L99.75 82L98 80.25L103.25 75Z" fill="#818181"/>
<path d="M195 22.75L196.75 21L202 26.25L200.25 28L195 22.75Z" fill="#818181"/>
<path d="M200.25 21L202 22.75L196.75 28L195 26.25L200.25 21Z" fill="#818181"/>
</svg>
