<svg width="279" height="279" viewBox="0 0 279 279" fill="none" xmlns="http://www.w3.org/2000/svg">
<rect x="33" y="89" width="8" height="8" rx="2" fill="#818181"/>
<rect x="33" y="105" width="8" height="8" rx="2" fill="#818181"/>
<rect x="33" y="121" width="8" height="8" rx="2" fill="#818181"/>
<rect x="33" y="137" width="8" height="8" rx="2" fill="#818181"/>
<rect x="33" y="153" width="8" height="8" rx="2" fill="#818181"/>
<rect x="33" y="169" width="8" height="8" rx="2" fill="#818181"/>
<rect x="33" y="185" width="8" height="8" rx="2" fill="#818181"/>
<rect x="33" y="201" width="8" height="8" rx="2" fill="#818181"/>
<rect x="49" y="89" width="82.5" height="8" rx="2" fill="#818181"/>
<rect x="49" y="105" width="82.5" height="8" rx="2" fill="#818181"/>
<rect x="49" y="121" width="82.5" height="8" rx="2" fill="#818181"/>
<rect x="49" y="137" width="82.5" height="8" rx="2" fill="#818181"/>
<rect x="49" y="153" width="82.5" height="8" rx="2" fill="#818181"/>
<rect x="49" y="169" width="82.5" height="8" rx="2" fill="#818181"/>
<rect x="49" y="185" width="82.5" height="8" rx="2" fill="#818181"/>
<rect x="49" y="201" width="82.5" height="8" rx="2" fill="#818181"/>
<rect x="147.5" y="89" width="8" height="8" rx="2" fill="#818181"/>
<rect x="147.5" y="105" width="8" height="8" rx="2" fill="#818181"/>
<rect x="147.5" y="121" width="8" height="8" rx="2" fill="#818181"/>
<rect x="147.5" y="137" width="8" height="8" rx="2" fill="#818181"/>
<rect x="147.5" y="153" width="8" height="8" rx="2" fill="#818181"/>
<rect x="147.5" y="169" width="8" height="8" rx="2" fill="#818181"/>
<rect x="147.5" y="185" width="8" height="8" rx="2" fill="#818181"/>
<rect x="147.5" y="201" width="8" height="8" rx="2" fill="#818181"/>
<rect x="163.5" y="89" width="82.5" height="8" rx="2" fill="#818181"/>
<rect x="163.5" y="105" width="82.5" height="8" rx="2" fill="#818181"/>
<rect x="163.5" y="121" width="82.5" height="8" rx="2" fill="#818181"/>
<rect x="163.5" y="137" width="82.5" height="8" rx="2" fill="#818181"/>
<rect x="163.5" y="153" width="82.5" height="8" rx="2" fill="#818181"/>
<rect x="163.5" y="169" width="82.5" height="8" rx="2" fill="#818181"/>
<rect x="163.5" y="185" width="82.5" height="8" rx="2" fill="#818181"/>
<rect x="163.5" y="201" width="82.5" height="8" rx="2" fill="#818181"/>
<rect x="33" y="70" width="42" height="8" rx="2" fill="#818181"/>
<rect x="148" y="70" width="39" height="8" rx="2" fill="#818181"/>
</svg>
